<svg id="Layer_1" viewBox="0 0 512 512" xmlns="http://www.w3.org/2000/svg" data-name="Layer 1">
                          <path d="m496 398.052h-480a6 6 0 0 0 0 12h480a6 6 0 0 0 0-12z"></path>
                          <path d="m156.667 210.4c-25.45 10.137-46.4 28.371-59 51.346a6 6 0 1 0 10.521 5.771c11.262-20.537 30.057-36.861 52.923-45.968a6 6 0 0 0 -4.44-11.149z"></path>
                          <path d="m32.364 366.416h447.273a6 6 0 0 0 0-12h-4.472c-.624-53.617-23.394-103.917-64.307-141.854-34.8-32.267-79.227-52.337-127.264-57.9a52.794 52.794 0 0 0 28.276-46.709 6 6 0 0 0 -6-6h-93.506a6 6 0 0 0 -6 6 52.787 52.787 0 0 0 27.259 46.164c-50.033 4.681-96.429 25.018-132.482 58.45-40.913 37.933-63.683 88.233-64.306 141.849h-4.471a6 6 0 1 0 0 12zm186.436-252.468h80.63a40.758 40.758 0 0 1 -80.626 0zm37.2 51.117c113.43 0 205.847 84.735 207.163 189.351h-414.327c1.316-104.616 93.733-189.351 207.164-189.351z"></path>
                        </svg>