<svg xmlns="http://www.w3.org/2000/svg" viewBox="0 0 512 512">
                          <path d="M511.9 475.9l-30-165.4c-0.7-4.1-4.7-6.8-8.7-6.1 -4.1 0.7-6.8 4.7-6.1 8.7l12.7 69.9 -97.8-113.6 65.8-14.7 9.7 5.4 4.2 23.3c0.7 4.1 4.7 6.8 8.7 6.1 4.1-0.7 6.8-4.7 6.1-8.7l-4.9-26.8c-0.4-2.2-1.8-4.1-3.7-5.2l-15.3-8.5c0 0 0 0 0 0l-48.5-27h0L366.7 192.5c0 0 0 0 0 0 0 0 0 0 0 0 -0.3-0.2-0.6-0.3-0.9-0.4 -0.1 0-0.2-0.1-0.3-0.1 -0.2-0.1-0.4-0.1-0.6-0.2 -0.1 0-0.2 0-0.4-0.1 -0.2 0-0.4-0.1-0.6-0.1 -0.1 0-0.3 0-0.4 0 -0.2 0-0.4 0-0.6 0 -0.1 0-0.3 0-0.4 0 -0.2 0-0.4 0-0.6 0.1 -0.1 0-0.3 0-0.4 0.1 -0.2 0-0.4 0.1-0.5 0.1 -0.1 0-0.3 0.1-0.4 0.1 -0.2 0.1-0.3 0.1-0.5 0.2 -0.1 0.1-0.3 0.1-0.4 0.2 -0.1 0-0.1 0-0.2 0.1l-17.2 8.9c12.8-23.8 19.2-46.9 19.2-68.9 0-58-47.2-105.1-105.1-105.1S151.4 74.4 151.4 132.4c0 22.3 6.6 45.6 19.6 69.6l-18.5-9.6c-0.1 0-0.1 0-0.2-0.1 -0.1-0.1-0.3-0.1-0.4-0.2 -0.2-0.1-0.3-0.1-0.5-0.2 -0.1 0-0.3-0.1-0.4-0.1 -0.2 0-0.4-0.1-0.5-0.1 -0.1 0-0.3-0.1-0.4-0.1 -0.2 0-0.4 0-0.6-0.1 -0.1 0-0.3 0-0.4 0 -0.2 0-0.4 0-0.6 0 -0.1 0-0.3 0-0.4 0 -0.2 0-0.4 0.1-0.6 0.1 -0.1 0-0.3 0-0.4 0.1 -0.2 0.1-0.4 0.1-0.6 0.2 -0.1 0-0.2 0.1-0.3 0.1 -0.3 0.1-0.6 0.3-0.9 0.4 0 0 0 0 0 0 0 0 0 0 0 0L44.1 248.8c-2 1.1-3.3 3-3.7 5.2L11.8 411.3c-0.7 4.1 2 8 6.1 8.7 4.1 0.7 8-2 8.7-6.1l8.6-47.2 97.3-51.4 -7.8 101L17.5 464.5l3.8-20.8c0.7-4.1-2-8-6.1-8.7 -4.1-0.7-8 2-8.7 6.1l-6.3 34.8c-0.5 2.7 0.6 5.5 2.8 7.3 1.3 1.1 3 1.6 4.6 1.6 1 0 2.1-0.2 3.1-0.7l121.2-54.4 121.1 54.4c0 0 0 0 0 0l0 0c0.1 0 0.1 0.1 0.2 0.1 0.1 0 0.2 0.1 0.3 0.1 0.1 0 0.2 0.1 0.3 0.1 0.1 0 0.1 0 0.2 0.1 0.1 0 0.2 0.1 0.3 0.1 0.2 0 0.3 0.1 0.5 0.1 0.1 0 0.1 0 0.2 0 0.1 0 0.1 0 0.2 0 0.3 0 0.5 0 0.8 0 0 0 0.1 0 0.1 0 0 0 0 0 0 0 0.3 0 0.6 0 0.9-0.1 0 0 0.1 0 0.1 0 0.1 0 0.1 0 0.2 0 0.2 0 0.5-0.1 0.7-0.2 0.1 0 0.1 0 0.2 0 0 0 0 0 0 0 0 0 0 0 0.1 0 0.3-0.1 0.6-0.2 0.9-0.3l121.2-54.4 121.2 54.4c0.1 0.1 0.2 0.1 0.4 0.1 0.1 0 0.2 0.1 0.4 0.1 0.2 0.1 0.3 0.1 0.5 0.1 0.1 0 0.2 0.1 0.3 0.1 0.2 0 0.4 0.1 0.6 0.1 0.1 0 0.1 0 0.2 0 0.3 0 0.5 0 0.8 0h0c0 0 0 0 0 0 0.4 0 0.7 0 1.1-0.1 0.1 0 0.2 0 0.3 0 0.4-0.1 0.7-0.1 1.1-0.3 0 0 0 0 0.1 0 0.2-0.1 0.5-0.2 0.7-0.3 0.1 0 0.1-0.1 0.2-0.1 0.2-0.1 0.4-0.2 0.6-0.3 0.2-0.1 0.4-0.2 0.5-0.3 0.1 0 0.1-0.1 0.2-0.1 0.1-0.1 0.2-0.2 0.4-0.3 0.1-0.1 0.2-0.2 0.3-0.3 0.2-0.2 0.4-0.5 0.6-0.7 0 0 0.1-0.1 0.1-0.1 0.2-0.3 0.4-0.6 0.6-1 0-0.1 0.1-0.2 0.1-0.3 0.1-0.2 0.2-0.5 0.3-0.7 0-0.1 0.1-0.3 0.1-0.4 0.1-0.2 0.1-0.5 0.2-0.7 0-0.1 0.1-0.3 0.1-0.4 0-0.3 0-0.5 0.1-0.8 0-0.1 0-0.2 0-0.4C512 476.6 512 476.3 511.9 475.9zM379.8 217l-7.7 1.8 -0.5-6.4L379.8 217zM363.4 301.2l-31.4-24.5c-2.2-1.7-5.1-2.1-7.6-1l-60.8 26.5v-8.2c4.5-3.7 14.9-12.4 27.3-25l67.8-29.8L363.4 301.2zM356.4 211l1 12.4 -42.4 18.6c4.2-5.2 8.1-10.4 11.8-15.6L356.4 211zM155.6 211l31.2 16.2c4.6 6.5 9.7 13 15.2 19.6 4.8 5.8 9.6 11.1 14.2 16l-63.9-9.1L155.6 211zM133.8 297.7l-95.2 50.3 4.6-25.6 0.1-0.7 92.4-48.7L133.8 297.7zM137.1 255.4l-90.3 47.6 7.8-42.7 85.9-47.8 -2.2 27.9L137.1 255.4zM139.7 416.7l7.1-91.9 88.8 134.9L139.7 416.7zM248.5 387.8l-46.3-73 46.3 5.5V387.8zM248.5 305.2l-60.2-7.2c-2.9-0.3-5.7 1-7.3 3.5 -1.5 2.5-1.5 5.6 0 8l67.5 106.3v36.3l-99.8-151.7 2.5-31.7 82.9 11.9c6.3 5.8 11.3 10.1 14.4 12.7V305.2zM256.5 280.3c-19-16-90.1-80.5-90.1-147.9 0-49.7 40.4-90.1 90.1-90.1s90.1 40.4 90.1 90.1C346.6 199.8 275.5 264.3 256.5 280.3zM263.5 465.6v-33.4l22.5 23.3L263.5 465.6zM300.6 449l-37-38.4v-92l62.8-27.3 38.7 30.2 7.4 95.2L300.6 449zM373.3 234l26.1-6.1 18.5 10.3 10.2 5.7 -53.1 11.8L373.3 234zM387.4 416.4l-5.9-75.7 96.5 116.5L387.4 416.4zM379.5 314.7l-2-26.4 -0.1-1.1 107.7 125.1 6.9 38.1L379.5 314.7z"></path>
                          <path d="M256.5 86c-4.1 0-7.5 3.4-7.5 7.5s3.4 7.5 7.5 7.5c17.3 0 31.4 14.1 31.4 31.4 0 17.3-14.1 31.4-31.4 31.4s-31.4-14.1-31.4-31.4c0-8.3 3.2-16.1 9-22 2.9-3 2.9-7.7-0.1-10.6 -3-2.9-7.7-2.9-10.6 0.1 -8.6 8.7-13.3 20.3-13.3 32.6 0 25.6 20.8 46.4 46.4 46.4s46.4-20.8 46.4-46.4C302.9 106.8 282.1 86 256.5 86z"></path>
                        </svg>