<svg xmlns="http://www.w3.org/2000/svg" viewBox="0 0 512 512">
                    <path d="M374.6 492h-0.1c-5.5 0-10 4.5-10 10 0 5.5 4.5 10 10 10h0.1c5.5 0 10-4.5 10-10C384.6 496.5 380.2 492 374.6 492z"></path>
                    <path d="M509 168.9L438 98.3V40c0-22.1-17.9-40-40-40H114C91.9 0 74 17.9 74 40v57.8l-71.1 71.1C1.1 170.8 0 173.3 0 176V432.5C0 476.3 35.7 512 79.5 512h250.4c5.5 0 10-4.5 10-10 0-5.5-4.5-10-10-10H79.5c-11.7 0-22.6-3.4-31.8-9.3l18.7-18.7h153.6c5.5 0 10-4.5 10-10 0-5.5-4.5-10-10-10H86.4l119.3-119.3c27.7-27.7 72.9-27.7 100.6 0l158 158C455.1 488.6 444.2 492 432.5 492H419c-5.5 0-10 4.5-10 10 0 5.5 4.5 10 10 10h13.5c20.4 0 39-7.7 53-20.3 0.3-0.3 0.7-0.5 1-0.9 0.1-0.1 0.2-0.3 0.4-0.4C502.3 475.9 512 455.3 512 432.5V176C512 173.3 510.9 170.7 509 168.9zM438 126.5l49.8 49.5L438 225.8V126.5zM74 126.1v99.7l-49.9-49.9L74 126.1zM32.8 469.3C24.8 459.2 20 446.4 20 432.5V200.1l141 141L32.8 469.3zM320.4 310.6c-35.5-35.5-93.4-35.5-128.9 0l-16.4 16.4L94 245.8V40c0-11 9-20 20-20h284c11 0 20 9 20 20v205.8l-81.1 81.1L320.4 310.6zM492 432.5c0 13.9-4.8 26.7-12.8 36.8L351 341.1l141-141V432.5z"></path>
                    <path d="M262 92H161.5c-5.5 0-10 4.5-10 10 0 5.5 4.5 10 10 10H262c5.5 0 10-4.5 10-10C272 96.5 267.5 92 262 92z"></path>
                    <path d="M315.4 94.9c-1.9-1.9-4.4-2.9-7.1-2.9 -2.6 0-5.2 1.1-7.1 2.9 -1.9 1.9-2.9 4.4-2.9 7.1s1.1 5.2 2.9 7.1c1.9 1.9 4.4 2.9 7.1 2.9s5.2-1.1 7.1-2.9c1.9-1.9 2.9-4.4 2.9-7.1S317.3 96.8 315.4 94.9z"></path>
                    <path d="M350.5 164H161.5c-5.5 0-10 4.5-10 10 0 5.5 4.5 10 10 10H350.5c5.5 0 10-4.5 10-10C360.5 168.5 356 164 350.5 164z"></path>
                    <path d="M350.5 236H161.5c-5.5 0-10 4.5-10 10 0 5.5 4.5 10 10 10H350.5c5.5 0 10-4.5 10-10C360.5 240.5 356 236 350.5 236z"></path>
                  </svg>